<svg width="37" height="36" viewBox="0 0 37 36" fill="none" xmlns="http://www.w3.org/2000/svg">
<g id="telegram" clip-path="url(#clip0_519_75)">
<path id="Subtract" fill-rule="evenodd" clip-rule="evenodd" d="M10.5 0C4.97715 0 0.5 4.47715 0.5 10V26C0.5 31.5228 4.97715 36 10.5 36H26.5C32.0228 36 36.5 31.5228 36.5 26V10C36.5 4.47715 32.0228 0 26.5 0H10.5ZM25.882 11.0111C25.6646 10.9817 25.4433 11.011 25.2411 11.0961L11.2502 16.987C10.2749 17.3977 10.225 18.8083 11.251 19.2337C12.0103 19.5487 12.9405 19.8073 13.9436 19.9742C14.4935 20.0658 14.9533 19.9742 15.8353 19.4375C16.8351 18.8287 19.8591 16.6663 21.7425 15.2443C22.501 14.6716 22.7939 15.0307 22.1516 15.6534C21.929 15.869 21.6836 16.1047 21.4253 16.3527C19.7856 17.9274 17.6271 20.0004 17.4716 20.6132C17.2622 21.4428 18.9665 22.6087 19.5228 22.9728C20.6355 23.7002 21.8726 24.3973 22.7055 24.8497C23.7013 25.3906 24.8925 24.7679 25.0725 23.6822L26.9282 12.4265C26.9638 12.21 26.9407 11.988 26.8614 11.7834C26.7821 11.5789 26.6494 11.3994 26.4771 11.2636C26.3049 11.1277 26.0993 11.0406 25.882 11.0111Z" fill="#2B8478"/>
</g>
<defs>
<clipPath id="clip0_519_75">
<rect width="36" height="36" fill="white" transform="translate(0.5)"/>
</clipPath>
</defs>
</svg>
