<svg width="37" height="36" viewBox="0 0 37 36" fill="none" xmlns="http://www.w3.org/2000/svg">
<path id="Subtract" fill-rule="evenodd" clip-rule="evenodd" d="M10.5 0C4.97715 0 0.5 4.47715 0.5 10V26C0.5 31.5228 4.97715 36 10.5 36H26.5C32.0228 36 36.5 31.5228 36.5 26V10C36.5 4.47715 32.0228 0 26.5 0H10.5ZM19.682 10.157C19.6167 10.1483 19.5427 10.1413 19.46 10.136C19.124 10.112 18.425 10.061 18.466 9.338C18.484 9.025 18.624 8.5 19.362 8.5C19.4439 8.5 19.5239 8.50557 19.594 8.51044L19.602 8.511C19.6633 8.51567 19.718 8.51833 19.766 8.519L19.821 8.516C19.8383 8.514 19.857 8.513 19.877 8.513C24.513 8.669 28.531 12.878 28.473 17.518C28.4737 17.5813 28.4757 17.6513 28.479 17.728C28.494 18.036 28.51 18.419 28.264 18.676C28.1213 18.8247 27.9253 18.899 27.676 18.899H27.652C26.8605 18.884 26.848 18.1469 26.842 17.7916L26.842 17.791C26.841 17.692 26.839 17.598 26.829 17.521C26.256 12.983 24.185 10.85 19.682 10.157ZM26.325 23.162C26.4197 23.2379 26.5154 23.3126 26.612 23.386C27.336 23.939 28.238 24.628 27.744 26.022C27.181 27.613 25.346 29.009 23.818 29.009H23.792C23.7646 29.009 23.7374 29.0053 23.711 28.998C23.663 28.985 23.597 28.97 23.521 28.953C23.296 28.903 22.989 28.834 22.696 28.708C19.448 27.309 16.644 25.448 14.363 23.175C12.032 20.853 10.184 18.039 8.86901 14.812C8.41501 13.696 8.39501 12.623 8.81501 11.709C9.25001 10.764 10.118 10.048 11.329 9.641C11.7805 9.47897 12.2745 9.48039 12.725 9.645C13.779 10.032 16.28 13.443 16.342 14.576C16.395 15.575 15.628 16.096 15.215 16.376C14.489 16.87 14.355 17.476 14.768 18.404C15.622 20.323 17.116 21.777 19.206 22.725C19.4258 22.8343 19.6667 22.8947 19.912 22.902C20.265 22.902 20.552 22.728 20.788 22.37C21.322 21.563 21.968 21.153 22.71 21.153C23.26 21.153 23.842 21.374 24.49 21.829L24.805 22.049L24.8485 22.0794C25.34 22.4229 25.8471 22.7774 26.325 23.162ZM19.139 14.397C19.33 13.843 19.875 13.829 20.136 13.823C20.83 13.806 21.592 14.168 22.224 14.81C22.855 15.45 23.225 16.254 23.217 16.962C23.239 17.641 22.992 18.016 22.482 18.076C22.4501 18.0795 22.4181 18.0815 22.386 18.082C21.963 18.082 21.632 17.739 21.583 17.249C21.478 16.196 20.951 15.63 19.926 15.466C19.644 15.42 19.333 15.336 19.171 15.066C19.0597 14.88 19.049 14.657 19.139 14.397Z" fill="#2B8478"/>
</svg>
