<svg width="166" height="33" viewBox="0 0 166 33" fill="none" xmlns="http://www.w3.org/2000/svg">
<path fill-rule="evenodd" clip-rule="evenodd" d="M22 26.5C24.2091 26.5 26 24.7091 26 22.5V10.5C26 8.29086 24.2091 6.5 22 6.5C19.7909 6.5 18 8.29086 18 10.5V18.5H10C7.79086 18.5 6 20.2909 6 22.5C6 24.7091 7.79086 26.5 10 26.5H22Z" fill="#2B8478"/>
<path fill-rule="evenodd" clip-rule="evenodd" d="M10 26.5C12.2091 26.5 14 24.7091 14 22.5V14.5H22C24.2091 14.5 26 12.7091 26 10.5C26 8.29086 24.2091 6.5 22 6.5H10C7.79086 6.5 6 8.29086 6 10.5V22.5C6 24.7091 7.79086 26.5 10 26.5Z" fill="#2B8478" fill-opacity="0.5"/>
<path d="M36 10.6791H39.0341L42.2386 18.4973H42.375L45.5795 10.6791H48.6136V22.3155H46.2273V14.7416H46.1307L43.1193 22.2587H41.4943L38.483 14.7132H38.3864V22.3155H36V10.6791Z" fill="#2B8478"/>
<path d="M52.6463 22.3155H50.0099L54.027 10.6791H57.1974L61.2088 22.3155H58.5724L55.6577 13.3382H55.5668L52.6463 22.3155ZM52.4815 17.7416H58.7088V19.6621H52.4815V17.7416Z" fill="#2B8478"/>
<path d="M62.6094 22.3155V10.6791H65.0696V15.8098H65.223L69.4105 10.6791H72.3594L68.0412 15.8893L72.4105 22.3155H69.4673L66.2798 17.5314L65.0696 19.0087V22.3155H62.6094Z" fill="#2B8478"/>
<path d="M79.8594 14.0257C79.8139 13.5674 79.6188 13.2113 79.2741 12.9575C78.9295 12.7037 78.4616 12.5768 77.8707 12.5768C77.4692 12.5768 77.1302 12.6337 76.8537 12.7473C76.5772 12.8571 76.3651 13.0106 76.2173 13.2075C76.0734 13.4045 76.0014 13.628 76.0014 13.878C75.9938 14.0863 76.0374 14.2681 76.1321 14.4234C76.2306 14.5787 76.3651 14.7132 76.5355 14.8268C76.706 14.9367 76.9029 15.0333 77.1264 15.1166C77.3499 15.1962 77.5885 15.2643 77.8423 15.3212L78.8878 15.5712C79.3954 15.6848 79.8613 15.8363 80.2855 16.0257C80.7098 16.2151 81.0772 16.4481 81.3878 16.7246C81.6984 17.0011 81.9389 17.3268 82.1094 17.7018C82.2836 18.0768 82.3726 18.5068 82.3764 18.9916C82.3726 19.7037 82.1908 20.3212 81.831 20.8439C81.4749 21.3628 80.9598 21.7662 80.2855 22.0541C79.6151 22.3382 78.8063 22.4802 77.8594 22.4802C76.92 22.4802 76.1018 22.3363 75.4048 22.0484C74.7117 21.7606 74.17 21.3344 73.7798 20.77C73.3935 20.2018 73.1908 19.4992 73.1719 18.6621H75.5526C75.5791 19.0522 75.6908 19.378 75.8878 19.6393C76.0885 19.8969 76.3556 20.092 76.6889 20.2246C77.026 20.3534 77.4067 20.4177 77.831 20.4177C78.2476 20.4177 78.6094 20.3571 78.9162 20.2359C79.2268 20.1147 79.4673 19.9462 79.6378 19.7302C79.8082 19.5143 79.8935 19.2662 79.8935 18.9859C79.8935 18.7246 79.8158 18.5049 79.6605 18.3268C79.509 18.1488 79.2855 17.9973 78.9901 17.8723C78.6984 17.7473 78.3404 17.6337 77.9162 17.5314L76.6491 17.2132C75.6681 16.9746 74.8935 16.6015 74.3253 16.0939C73.7571 15.5863 73.4749 14.9026 73.4787 14.0427C73.4749 13.3382 73.6624 12.7227 74.0412 12.1962C74.4238 11.6696 74.9484 11.2587 75.6151 10.9632C76.2817 10.6677 77.0393 10.52 77.8878 10.52C78.7514 10.52 79.5052 10.6677 80.1491 10.9632C80.7969 11.2587 81.3007 11.6696 81.6605 12.1962C82.0204 12.7227 82.206 13.3325 82.2173 14.0257H79.8594Z" fill="#2B8478"/>
<path d="M83.3494 10.6791H86.1051L88.7585 15.6905H88.8722L91.5256 10.6791H94.2812L90.0369 18.2018V22.3155H87.5938V18.2018L83.3494 10.6791Z" fill="#2B8478"/>
<path d="M95.625 10.6791H98.6591L101.864 18.4973H102L105.205 10.6791H108.239V22.3155H105.852V14.7416H105.756L102.744 22.2587H101.119L98.108 14.7132H98.0114V22.3155H95.625V10.6791Z" fill="#2B8478"/>
<path d="M113.526 12.7075V10.6791H123.082V12.7075H119.52V22.3155H117.088V12.7075H113.526Z" fill="#2B8478"/>
<path d="M125.24 22.3155H122.604L126.621 10.6791H129.791L133.803 22.3155H131.166L128.251 13.3382H128.161L125.24 22.3155ZM125.075 17.7416H131.303V19.6621H125.075V17.7416Z" fill="#2B8478"/>
<path d="M135.203 22.3155V10.6791H137.663V20.2871H142.652V22.3155H135.203Z" fill="#2B8478"/>
<path d="M144.281 22.3155V10.6791H146.741V15.8098H146.895L151.082 10.6791H154.031L149.713 15.8893L154.082 22.3155H151.139L147.952 17.5314L146.741 19.0087V22.3155H144.281Z" fill="#2B8478"/>
<path d="M165.349 16.4973C165.349 17.7662 165.109 18.8458 164.628 19.7359C164.151 20.6261 163.499 21.306 162.673 21.7757C161.851 22.2416 160.927 22.4746 159.901 22.4746C158.866 22.4746 157.938 22.2397 157.116 21.77C156.295 21.3003 155.645 20.6204 155.168 19.7302C154.69 18.8401 154.452 17.7624 154.452 16.4973C154.452 15.2284 154.69 14.1488 155.168 13.2587C155.645 12.3685 156.295 11.6905 157.116 11.2246C157.938 10.7549 158.866 10.52 159.901 10.52C160.927 10.52 161.851 10.7549 162.673 11.2246C163.499 11.6905 164.151 12.3685 164.628 13.2587C165.109 14.1488 165.349 15.2284 165.349 16.4973ZM162.855 16.4973C162.855 15.6753 162.732 14.9821 162.486 14.4177C162.243 13.8534 161.901 13.4253 161.457 13.1337C161.014 12.842 160.495 12.6962 159.901 12.6962C159.306 12.6962 158.787 12.842 158.344 13.1337C157.901 13.4253 157.556 13.8534 157.31 14.4177C157.067 14.9821 156.946 15.6753 156.946 16.4973C156.946 17.3193 157.067 18.0124 157.31 18.5768C157.556 19.1412 157.901 19.5693 158.344 19.8609C158.787 20.1526 159.306 20.2984 159.901 20.2984C160.495 20.2984 161.014 20.1526 161.457 19.8609C161.901 19.5693 162.243 19.1412 162.486 18.5768C162.732 18.0124 162.855 17.3193 162.855 16.4973Z" fill="#2B8478"/>
</svg>
