<svg width="20" height="21" viewBox="0 0 20 21" fill="none" xmlns="http://www.w3.org/2000/svg">
<path fill-rule="evenodd" clip-rule="evenodd" d="M16 20.5C18.2091 20.5 20 18.7091 20 16.5V4.5C20 2.29086 18.2091 0.5 16 0.5C13.7909 0.5 12 2.29086 12 4.5V12.5H4C1.79086 12.5 0 14.2909 0 16.5C0 18.7091 1.79086 20.5 4 20.5H16Z" fill="#2B8478"/>
<path fill-rule="evenodd" clip-rule="evenodd" d="M4 20.5C6.20914 20.5 8 18.7091 8 16.5V8.5H16C18.2091 8.5 20 6.70914 20 4.5C20 2.29086 18.2091 0.5 16 0.5H4C1.79086 0.5 0 2.29086 0 4.5V16.5C0 18.7091 1.79086 20.5 4 20.5Z" fill="#2B8478" fill-opacity="0.5"/>
</svg>
