<svg width="16" height="16" viewBox="0 0 16 16" fill="none" xmlns="http://www.w3.org/2000/svg">
<g id="f7:exclamationmark-circle">
<path id="Vector" d="M8.00188 14.8305C11.7319 14.8305 14.8322 11.7368 14.8322 8.00021C14.8322 4.27021 11.725 1.16992 7.99502 1.16992C4.25873 1.16992 1.17188 4.27021 1.17188 8.00021C1.17188 11.7368 4.2653 14.8305 8.00188 14.8305ZM8.00216 13.6922C4.84102 13.6922 2.31616 11.1608 2.31616 8.00021C2.31616 4.84592 4.83416 2.30821 7.99502 2.30821C11.149 2.30821 13.6867 4.84621 13.6936 8.00021C13.7002 11.1611 11.1556 13.6922 8.00159 13.6922M7.99502 9.21221C8.31616 9.21221 8.49702 9.03135 8.50359 8.68335L8.60416 5.14764C8.61102 4.80592 8.34302 4.55164 7.98816 4.55164C7.62645 4.55164 7.37216 4.79935 7.37873 5.14078L7.46588 8.68335C7.47245 9.02478 7.66016 9.21221 7.99502 9.21221ZM7.99502 11.3885C8.37645 11.3885 8.71788 11.0805 8.71788 10.6922C8.71788 10.2971 8.3833 9.99564 7.99502 9.99564C7.59988 9.99564 7.27159 10.3036 7.27159 10.6922C7.27159 11.0739 7.60645 11.3885 7.99502 11.3885Z" fill="#FF0000"/>
</g>
</svg>
